<?xml version="1.0" encoding="UTF-8" standalone="no"?>
<!-- Created with Inkscape (http://www.inkscape.org/) -->

<svg
   width="248"
   height="178"
   viewBox="0 0 65.616668 47.095858"
   version="1.1"
   id="svg5"
   xml:space="preserve"
   inkscape:export-filename="bitmap.svg"
   inkscape:export-xdpi="96"
   inkscape:export-ydpi="96"
   xmlns:inkscape="http://www.inkscape.org/namespaces/inkscape"
   xmlns:sodipodi="http://sodipodi.sourceforge.net/DTD/sodipodi-0.dtd"
   xmlns="http://www.w3.org/2000/svg"
   xmlns:svg="http://www.w3.org/2000/svg"><sodipodi:namedview
     id="namedview7"
     pagecolor="#000000"
     bordercolor="#999999"
     borderopacity="1"
     inkscape:showpageshadow="0"
     inkscape:pageopacity="0"
     inkscape:pagecheckerboard="0"
     inkscape:deskcolor="#d1d1d1"
     inkscape:document-units="px"
     showgrid="false"
     inkscape:zoom="0.62035176"
     inkscape:cx="519.86634"
     inkscape:cy="619.00364"
     inkscape:window-width="1920"
     inkscape:window-height="1057"
     inkscape:window-x="-8"
     inkscape:window-y="-8"
     inkscape:window-maximized="1"
     inkscape:current-layer="layer1" /><defs
     id="defs2" /><g
     inkscape:label="Layer 1"
     inkscape:groupmode="layer"
     id="layer1"><g
       id="g8393"
       transform="matrix(0.4470461,0,0,0.4470461,-15.677234,-41.325481)"><path
         style="fill:#ff4949;fill-opacity:1;stroke-width:0.264583"
         d="m 89.855401,151.91344 c 0,0 -9.037808,-38.29724 -9.482326,-39.1146 C 79.938707,112.0756 58.105412,99.19259 46.676952,92.987548 44.92323,92.035371 42.30896,92.415395 40.53884,93.4532 c -1.650922,0.96792 -3.174778,2.932045 -3.174886,4.783494 -0.0011,18.782776 -0.507981,59.603196 -0.507981,59.603196 z"
         id="path3149"
         sodipodi:nodetypes="ccsascc" /><path
         style="fill:#ffcb34;fill-opacity:1;stroke-width:0.264583"
         d="m 94.681225,150.1355 -9.65165,-38.52195 c 0,0 8.87087,-9.91328 13.546182,-15.57811 1.22355,-1.482519 3.113133,-2.630494 5.025083,-2.828968 1.90298,-0.197544 4.149,0.350327 5.47321,1.728341 4.35566,4.532622 13.37685,14.054167 13.37685,14.054167 z"
         id="path3301"
         sodipodi:nodetypes="ccsascc" /><path
         style="fill:#34e9ff;fill-opacity:1;stroke-width:0.264583"
         d="m 100.56104,154.77519 27.41873,-42.38529 c 0,0 33.71295,14.87698 50.40736,22.27024 1.76527,0.78176 3.13704,2.90457 3.38244,4.86413 0.22972,1.8343 -0.47002,4.26511 -1.94565,5.19339 -8.24378,5.18592 -25.62274,15.80469 -25.62274,15.80469 l -33.16589,0.83812 z"
         id="path7191"
         sodipodi:nodetypes="ccsasccc" /><path
         style="fill:#5634ff;fill-opacity:1;stroke-width:0.264583"
         d="m 73.022575,188.5996 20.35451,-29.81338 23.707035,7.42342 4.7893,23.10836 -30.112718,-6.10636 z"
         id="path7949" /><path
         style="fill:#34ffc9;fill-opacity:1;stroke-width:0.264583"
         d="m 36.855973,164.02033 50.71351,-5.84179 -22.520524,33.18814 c 0.0015,-0.003 -13.777364,3.88895 -20.573261,5.75713 -2.336569,0.64232 -5.160988,0.39651 -7.027082,-1.0629 -1.623399,-1.26961 -2.481369,-3.89598 -2.370579,-5.71019 0.514394,-8.42328 1.777936,-26.33039 1.777936,-26.33039 z"
         id="path8221"
         sodipodi:nodetypes="cccsasc" /><path
         style="fill:#34ff38;fill-opacity:1;stroke-width:0.264583"
         d="m 125.17102,166.62485 23.59901,-0.37698 c 0,0 1.27112,13.7067 1.9603,20.20618 0.21095,1.98945 -1.05676,4.30004 -2.16496,5.34343 -1.08029,1.01711 -3.55225,2.09565 -5.22387,1.81921 -4.66993,-0.77228 -13.9483,-2.41268 -13.9483,-2.41268 z"
         id="path8277"
         sodipodi:nodetypes="ccssscc" /></g></g></svg>
