<?xml version="1.0" encoding="UTF-8" standalone="no"?>
<!-- Created with Inkscape (http://www.inkscape.org/) -->

<svg
   width="382"
   height="152"
   viewBox="0 0 101.0713 40.216692"
   version="1.1"
   id="svg5"
   xml:space="preserve"
   xmlns="http://www.w3.org/2000/svg"
   xmlns:svg="http://www.w3.org/2000/svg"><defs
     id="defs2"><linearGradient
       id="linearGradient15729"><stop
         style="stop-color:#6c00f9;stop-opacity:1;"
         offset="0"
         id="stop15727" /></linearGradient><rect
       x="-309.90482"
       y="6.8509517"
       width="374.60995"
       height="127.17905"
       id="rect8624" /></defs><g
     id="layer1"><g
       id="g12788"
       transform="translate(-20.535362,-2.619241)"><g
         id="g8393"
         transform="matrix(0.3837795,0,0,0.3837795,51.764948,-32.857799)"><path
           style="fill:#ff4949;fill-opacity:1;stroke-width:0.264583"
           d="m 89.855401,151.91344 c 0,0 -9.037808,-38.29724 -9.482326,-39.1146 C 79.938707,112.0756 58.105412,99.19259 46.676952,92.987548 44.92323,92.035371 42.30896,92.415395 40.53884,93.4532 c -1.650922,0.96792 -3.174778,2.932045 -3.174886,4.783494 -0.0011,18.782776 -0.507981,59.603196 -0.507981,59.603196 z"
           id="path3149" /><path
           style="fill:#ffcb34;fill-opacity:1;stroke-width:0.264583"
           d="m 94.681225,150.1355 -9.65165,-38.52195 c 0,0 8.87087,-9.91328 13.546182,-15.57811 1.22355,-1.482519 3.113133,-2.630494 5.025083,-2.828968 1.90298,-0.197544 4.149,0.350327 5.47321,1.728341 4.35566,4.532622 13.37685,14.054167 13.37685,14.054167 z"
           id="path3301" /><path
           style="fill:#34e9ff;fill-opacity:1;stroke-width:0.264583"
           d="m 100.56104,154.77519 27.41873,-42.38529 c 0,0 33.71295,14.87698 50.40736,22.27024 1.76527,0.78176 3.13704,2.90457 3.38244,4.86413 0.22972,1.8343 -0.47002,4.26511 -1.94565,5.19339 -8.24378,5.18592 -25.62274,15.80469 -25.62274,15.80469 l -33.16589,0.83812 z"
           id="path7191" /><path
           style="fill:#5634ff;fill-opacity:1;stroke-width:0.264583"
           d="m 73.022575,188.5996 20.35451,-29.81338 23.707035,7.42342 4.7893,23.10836 -30.112718,-6.10636 z"
           id="path7949" /><path
           style="fill:#34ffc9;fill-opacity:1;stroke-width:0.264583"
           d="m 36.855973,164.02033 50.71351,-5.84179 -22.520524,33.18814 c 0.0015,-0.003 -13.777364,3.88895 -20.573261,5.75713 -2.336569,0.64232 -5.160988,0.39651 -7.027082,-1.0629 -1.623399,-1.26961 -2.481369,-3.89598 -2.370579,-5.71019 0.514394,-8.42328 1.777936,-26.33039 1.777936,-26.33039 z"
           id="path8221" /><path
           style="fill:#34ff38;fill-opacity:1;stroke-width:0.264583"
           d="m 125.17102,166.62485 23.59901,-0.37698 c 0,0 1.27112,13.7067 1.9603,20.20618 0.21095,1.98945 -1.05676,4.30004 -2.16496,5.34343 -1.08029,1.01711 -3.55225,2.09565 -5.22387,1.81921 -4.66993,-0.77228 -13.9483,-2.41268 -13.9483,-2.41268 z"
           id="path8277" /></g><g
         aria-label="Omnom"
         transform="matrix(0.22713919,0,0,0.22713919,90.138885,7.8695843)"
         id="text8622"
         style="font-weight:bold;font-size:96px;font-family:'Nirmala UI';-inkscape-font-specification:'Nirmala UI Bold';white-space:pre;shape-inside:url(#rect8624)"><g
           id="g12772"><path
             d="m -273.81055,94.495862 c -9.625,0 -17.46875,-3.125 -23.53125,-9.375 -6.0625,-6.28125 -9.09375,-14.453125 -9.09375,-24.515625 0,-10.625 3.07813,-19.21875 9.23438,-25.78125 6.15625,-6.5625 14.3125,-9.84375 24.46875,-9.84375 9.59375,0 17.34375,3.140625 23.25,9.421875 5.9375,6.28125 8.90625,14.5625 8.90625,24.84375 0,10.5625 -3.07813,19.078125 -9.23438,25.546875 -6.125,6.46875 -14.125,9.703125 -24,9.703125 z"
             id="path9822"
             style="fill:#000000;fill-opacity:1;stroke:none;stroke-width:3.09617;stroke-linejoin:round;stroke-dasharray:none;stroke-opacity:1" /><path
             d="M -96.576172,93.323987 H -111.3418 V 66.652112 c 0,-7.4375 -2.65625,-11.15625 -7.96875,-11.15625 -2.5625,0 -4.67187,0.984375 -6.32812,2.953125 -1.65625,1.96875 -2.48438,4.46875 -2.48438,7.5 v 27.375 h -14.8125 v -48 h 14.8125 l 0.0469,4.149581 c 2.4667,-2.231328 4.64159,-4.046862 12.41696,-3.991362 5.4757,0.03909 19.083058,5.263656 19.083058,18.451156 z"
             id="path9826"
             style="fill:#000000;fill-opacity:1;stroke:none;stroke-width:3.09617;stroke-linejoin:round;stroke-dasharray:none;stroke-opacity:1" /><path
             d="m -61.982422,94.495862 c -8,0 -14.296875,-2.234375 -18.890625,-6.703125 -4.5625,-4.5 -6.84375,-10.59375 -6.84375,-18.28125 0,-7.9375 2.375,-14.140625 7.125,-18.609375 4.75,-4.5 11.171875,-6.75 19.265625,-6.75 7.96875,0 14.21875,2.25 18.75,6.75 4.53125,4.46875 6.796875,10.390625 6.796875,17.765625 0,7.96875 -2.34375,14.265625 -7.03125,18.890625 -4.65625,4.625 -11.046875,6.9375 -19.171875,6.9375 z"
             id="path9828"
             style="fill:#000000;fill-opacity:1;stroke:none;stroke-width:3.09617;stroke-linejoin:round;stroke-dasharray:none;stroke-opacity:1" /><path
             d="M 50.048828,93.323987 H 35.283203 v -27.375 c 0,-6.96875 -2.5625,-10.453125 -7.6875,-10.453125 -2.4375,0 -4.421875,1.046875 -5.953125,3.140625 -1.53125,2.09375 -2.296875,4.703125 -2.296875,7.828125 V 93.323987 H 4.5332031 v -27.65625 c 0,-6.78125 -2.515625,-10.171875 -7.546875,-10.171875 -2.53125,0 -4.5625,1 -6.09375,3 -1.5000001,2 -2.2500001,4.71875 -2.2500001,8.15625 v 26.671875 h -14.8125 v -48 h 14.8125 c 0,0 0.0324,3.306491 0.04686,4.96959 -2.59e-4,0.02857 4.8216747,-3.454308 8.4799447,-3.849574 3.65827,-0.395266 10.6039038,-0.225275 14.7908433,4.571969 3.70311,-4.844123 12.168554,-4.846073 16.354992,-4.816174 4.186438,0.0299 21.733611,2.421718 21.733611,17.264814 z"
             id="path9830"
             style="fill:#000000;fill-opacity:1;stroke:none;stroke-width:3.09617;stroke-linejoin:round;stroke-dasharray:none;stroke-opacity:1" /><path
             d="m -154.65436,93.324569 h -14.76562 V 65.949574 c 0,-6.96875 -2.5625,-10.453125 -7.6875,-10.453125 -2.4375,0 -4.42188,1.046875 -5.95313,3.140625 -1.53125,2.09375 -2.29687,4.703125 -2.29687,7.828125 v 26.85937 h -14.8125 V 65.668324 c 0,-6.78125 -2.51563,-10.171875 -7.54688,-10.171875 -2.53125,0 -4.5625,1 -6.09375,3 -1.5,2 -2.25,4.71875 -2.25,8.15625 v 26.67187 h -14.8125 V 45.324574 h 14.8125 c 0,0 0.0324,3.306491 0.0469,4.96959 -2.6e-4,0.02857 4.82168,-3.454308 8.47995,-3.849574 3.65827,-0.395266 10.6039,-0.225275 14.79084,4.571969 3.70311,-4.844123 12.16856,-4.846073 16.35499,-4.816174 4.18644,0.0299 21.73361,2.421718 21.73361,17.264814 z"
             id="path9830-5"
             style="font-weight:bold;font-size:96px;font-family:'Nirmala UI';-inkscape-font-specification:'Nirmala UI Bold';white-space:pre;shape-inside:url(#rect8624);fill:#000000;fill-opacity:1;stroke:none;stroke-width:3.09617;stroke-linejoin:round;stroke-dasharray:none;stroke-opacity:1" /></g></g></g></g></svg>
